<svg width="22" height="22" viewBox="0 0 22 22" fill="none" xmlns="http://www.w3.org/2000/svg">
<path d="M9.39584 10.9999C9.39584 9.9874 10.2166 9.16659 11.2292 9.16659C12.2417 9.16659 13.0625 9.9874 13.0625 10.9999C13.0625 12.0124 12.2417 12.8333 11.2292 12.8333C10.2166 12.8333 9.39584 12.0124 9.39584 10.9999Z" fill="#23314B"/>
<path d="M9.39584 18.3334C9.39584 17.3209 10.2166 16.5001 11.2292 16.5001C12.2417 16.5001 13.0625 17.3209 13.0625 18.3334C13.0625 19.3459 12.2417 20.1667 11.2292 20.1667C10.2166 20.1667 9.39584 19.3459 9.39584 18.3334Z" fill="#23314B"/>
<path d="M9.39584 3.66667C9.39584 2.65415 10.2166 1.83334 11.2292 1.83334C12.2417 1.83334 13.0625 2.65415 13.0625 3.66667C13.0625 4.67919 12.2417 5.5 11.2292 5.5C10.2166 5.5 9.39584 4.67919 9.39584 3.66667Z" fill="#23314B"/>
</svg>
