<svg width="22" height="22" viewBox="0 0 22 22" fill="none" xmlns="http://www.w3.org/2000/svg">
<path fill-rule="evenodd" clip-rule="evenodd" d="M15.2855 1H18.5521C19.9036 1 21 2.1059 21 3.47018V6.7641C21 8.12735 19.9036 9.23429 18.5521 9.23429H15.2855C13.933 9.23429 12.8366 8.12735 12.8366 6.7641V3.47018C12.8366 2.1059 13.933 1 15.2855 1Z" stroke="#757971" stroke-width="2" stroke-linecap="round" stroke-linejoin="round"/>
<path fill-rule="evenodd" clip-rule="evenodd" d="M3.44892 1H6.71449C8.06703 1 9.16341 2.1059 9.16341 3.47018V6.7641C9.16341 8.12735 8.06703 9.23429 6.71449 9.23429H3.44892C2.09638 9.23429 1 8.12735 1 6.7641V3.47018C1 2.1059 2.09638 1 3.44892 1Z" stroke="#757971" stroke-width="2" stroke-linecap="round" stroke-linejoin="round"/>
<path fill-rule="evenodd" clip-rule="evenodd" d="M3.44892 12.7656H6.71449C8.06703 12.7656 9.16341 13.8715 9.16341 15.2368V18.5297C9.16341 19.894 8.06703 20.9999 6.71449 20.9999H3.44892C2.09638 20.9999 1 19.894 1 18.5297V15.2368C1 13.8715 2.09638 12.7656 3.44892 12.7656Z" stroke="#757971" stroke-width="2" stroke-linecap="round" stroke-linejoin="round"/>
<path fill-rule="evenodd" clip-rule="evenodd" d="M15.2855 12.7656H18.5521C19.9036 12.7656 21 13.8715 21 15.2368V18.5297C21 19.894 19.9036 20.9999 18.5521 20.9999H15.2855C13.933 20.9999 12.8366 19.894 12.8366 18.5297V15.2368C12.8366 13.8715 13.933 12.7656 15.2855 12.7656Z" stroke="#757971" stroke-width="2" stroke-linecap="round" stroke-linejoin="round"/>
</svg>
