<svg width="153" height="58" viewBox="0 0 153 58" fill="none" xmlns="http://www.w3.org/2000/svg">
<path d="M61.5369 7.20508V47.6452H74.0164C84.2462 47.6452 90.261 40.1343 90.261 27.3271C90.261 14.5196 84.2225 7.20508 74.0164 7.20508H61.5369ZM67.6465 13.3145H73.377C80.1969 13.3145 84.033 18.3029 84.033 27.3551C84.033 36.5751 80.2442 41.5357 73.377 41.5357H67.6465V13.3145Z" fill="#222132"/>
<path d="M94.689 47.6452H100.585V7.20508H94.689V47.6452Z" fill="#222132"/>
<path d="M122.229 38.7612C121.59 41.2276 119.506 42.8528 116.759 42.8528C112.899 42.8528 110.436 39.658 110.436 34.8938V34.4734H127.983V32.2034C127.983 23.1794 123.532 17.3223 116.404 17.3223C109.158 17.3223 104.564 23.5157 104.564 32.9041C104.564 42.3764 109.11 48.2336 116.641 48.2336C122.584 48.2336 126.989 44.3664 127.747 38.7612H122.229ZM116.428 22.731C119.814 22.731 122.087 25.6737 122.206 29.8774H110.484C110.721 25.7297 113.112 22.731 116.428 22.731Z" fill="#222132"/>
<path d="M141.173 36.9963L146.383 47.646H152.824L144.844 32.6245L152.919 17.9395H146.454L141.457 28.3648H141.339L136.272 17.9395H129.641L137.669 32.8206L129.57 47.646H135.845L141.055 36.9963H141.173Z" fill="#222132"/>
<path fill-rule="evenodd" clip-rule="evenodd" d="M24.2644 57.4259C37.649 57.4154 48.4965 44.5713 48.4965 28.7286C48.4965 12.8858 37.649 0.0415572 24.2644 0.03125C33.748 4.72143 40.4121 15.8039 40.4121 28.7286C40.4121 41.653 33.748 52.7355 24.2644 57.4259Z" fill="#2BC155" fill-opacity="0.16"/>
<path d="M0 4.03125C0 1.82211 1.79086 0.03125 4 0.03125H14.1453C27.5372 0.03125 38.3934 12.8794 38.3934 28.7285C38.3934 44.5776 27.5372 57.4258 14.1453 57.4258H4C1.79086 57.4258 0 55.6349 0 53.4258V4.03125Z" fill="#2BC155"/>
</svg>
