<svg width="24" height="24" viewBox="0 0 24 24" fill="none" xmlns="http://www.w3.org/2000/svg">
<path d="M11.4923 2.78906H7.7533C4.6783 2.78906 2.75031 4.96606 2.75031 8.04806V16.3621C2.75031 19.4441 4.6693 21.6211 7.7533 21.6211H16.5773C19.6623 21.6211 21.5813 19.4441 21.5813 16.3621V12.3341" stroke="#757971" stroke-width="2" stroke-linecap="round" stroke-linejoin="round"/>
<path fill-rule="evenodd" clip-rule="evenodd" d="M8.82782 10.9205L16.3008 3.4475C17.2318 2.5175 18.7408 2.5175 19.6718 3.4475L20.8888 4.6645C21.8198 5.5955 21.8198 7.1055 20.8888 8.0355L13.3798 15.5445C12.9728 15.9515 12.4208 16.1805 11.8448 16.1805H8.09882L8.19282 12.4005C8.20682 11.8445 8.43382 11.3145 8.82782 10.9205Z" stroke="#757971" stroke-width="2" stroke-linecap="round" stroke-linejoin="round"/>
<path d="M15.1652 4.60156L19.7312 9.16756" stroke="#757971" stroke-width="2" stroke-linecap="round" stroke-linejoin="round"/>
</svg>
