<svg width="20" height="20" viewBox="0 0 20 20" fill="none" xmlns="http://www.w3.org/2000/svg">
<path d="M14.5577 0.952381L6.65714 8.85291L6.66561 13.3471L11.1503 13.3397L19.0476 5.44233V18.9418C19.0476 19.2225 18.9361 19.4916 18.7377 19.6901C18.5392 19.8885 18.2701 20 17.9894 20H1.0582C0.777549 20 0.508391 19.8885 0.30994 19.6901C0.111489 19.4916 0 19.2225 0 18.9418V2.01058C0 1.72993 0.111489 1.46077 0.30994 1.26232C0.508391 1.06387 0.777549 0.952381 1.0582 0.952381H14.5577ZM18.5026 0L20 1.49841L10.273 11.2254L8.77884 11.2286L8.77672 9.7291L18.5026 0Z" fill="#E6E7E9"/>
</svg>
