<svg width="25" height="17" viewBox="0 0 25 17" fill="none" xmlns="http://www.w3.org/2000/svg">
<path d="M12.5002 4.22813C14.6258 4.22813 16.349 5.95131 16.349 8.07696C16.349 10.2026 14.6258 11.9258 12.5002 11.9258C10.3745 11.9258 8.65137 10.2026 8.65137 8.07696C8.65137 5.95131 10.3745 4.22813 12.5002 4.22813Z" fill="#E6E7E9"/>
<path d="M24.6166 9.14375C21.6581 12.7188 17.1798 16.1602 12.5001 16.1602C7.81944 16.1602 3.34006 12.7164 0.383557 9.14375C-0.127852 8.52601 -0.127852 7.62923 0.383557 7.0115C1.12686 6.11328 2.68514 4.37938 4.76638 2.86439C10.0079 -0.951338 14.9807 -0.959757 20.2337 2.86439C22.315 4.37938 23.8733 6.11328 24.6166 7.0115C25.1265 7.62803 25.1291 8.52399 24.6166 9.14375ZM12.5001 13.466C15.4713 13.466 17.8884 11.0489 17.8884 8.07762C17.8884 5.10633 15.4713 2.68927 12.5001 2.68927C9.52879 2.68927 7.11174 5.10633 7.11174 8.07762C7.11174 11.0489 9.52879 13.466 12.5001 13.466Z" fill="#E6E7E9"/>
</svg>
