<svg width="32" height="32" viewBox="0 0 32 32" fill="none" xmlns="http://www.w3.org/2000/svg">
<path d="M13.5441 23.8083H4.10834" stroke="#2BC155" stroke-width="2" stroke-linecap="round" stroke-linejoin="round"/>
<path fill-rule="evenodd" clip-rule="evenodd" d="M27.8929 23.8093C27.8929 25.8839 26.211 27.5658 24.1363 27.5658C22.0617 27.5658 20.3798 25.8839 20.3798 23.8093C20.3798 21.733 22.0617 20.0527 24.1363 20.0527C26.211 20.0527 27.8929 21.733 27.8929 23.8093Z" stroke="#2BC155" stroke-width="2" stroke-linecap="round" stroke-linejoin="round"/>
<path d="M18.4557 8.51726H27.893" stroke="#2BC155" stroke-width="2" stroke-linecap="round" stroke-linejoin="round"/>
<path fill-rule="evenodd" clip-rule="evenodd" d="M4.10773 8.51629C4.10773 10.5925 5.78957 12.2728 7.86425 12.2728C9.93893 12.2728 11.6208 10.5925 11.6208 8.51629C11.6208 6.44161 9.93893 4.75977 7.86425 4.75977C5.78957 4.75977 4.10773 6.44161 4.10773 8.51629Z" stroke="#2BC155" stroke-width="2" stroke-linecap="round" stroke-linejoin="round"/>
</svg>
