<svg width="24" height="24" viewBox="0 0 24 24" fill="none" xmlns="http://www.w3.org/2000/svg">
<path fill-rule="evenodd" clip-rule="evenodd" d="M21.5241 9.75272C20.885 5.81932 17.544 2.89308 13.5607 2.77789C13.3713 2.77047 13.1867 2.83866 13.0477 2.96743C12.9086 3.0962 12.8264 3.27499 12.8193 3.46439V3.46439V3.52846L13.2678 10.2378C13.2972 10.6895 13.6855 11.0328 14.1374 11.0067L20.865 10.5582C21.0546 10.5442 21.2308 10.4552 21.3545 10.3108C21.4782 10.1665 21.5392 9.97882 21.5241 9.78933V9.75272Z" stroke="#757971" stroke-width="2" stroke-linecap="round" stroke-linejoin="round"/>
<path d="M8.90163 6.76779C9.32959 6.6688 9.76753 6.88777 9.94511 7.28953C9.99163 7.38403 10.0196 7.48656 10.0275 7.59159C10.119 8.89136 10.3112 11.738 10.4211 13.2758C10.4398 13.5528 10.5682 13.8109 10.7778 13.993C10.9874 14.1751 11.2609 14.2662 11.5378 14.2461V14.2461L17.1854 13.8982C17.4375 13.8831 17.6847 13.9728 17.8684 14.1461C18.0522 14.3194 18.1561 14.561 18.1556 14.8136V14.8136C17.9268 18.2239 15.4765 21.075 12.1393 21.814C8.80214 22.553 5.3773 21.003 3.73001 18.0081C3.23826 17.1461 2.92684 16.1932 2.81467 15.2072C2.76672 14.9045 2.74833 14.598 2.75975 14.2918C2.76947 10.6498 5.32726 7.51175 8.89248 6.76779" stroke="#757971" stroke-width="2" stroke-linecap="round" stroke-linejoin="round"/>
</svg>
