<svg width="88" height="87" viewBox="0 0 88 87" fill="none" xmlns="http://www.w3.org/2000/svg">
<path fill-rule="evenodd" clip-rule="evenodd" d="M62.9773 3H24.9177C11.6504 3 3.33789 12.3906 3.33789 25.68V61.5393C3.33789 74.8287 11.6151 84.2192 24.9177 84.2192H62.9729C76.2799 84.2192 84.5571 74.8287 84.5571 61.5393V25.68C84.5571 12.3906 76.2799 3 62.9773 3Z" stroke="#828282" stroke-width="5" stroke-linecap="round" stroke-linejoin="round"/>
<path fill-rule="evenodd" clip-rule="evenodd" d="M38.3349 29.5576C38.3349 34.0416 34.6957 37.6808 30.2116 37.6808C25.732 37.6808 22.0928 34.0416 22.0928 29.5576C22.0928 25.0735 25.732 21.4343 30.2116 21.4343C34.6957 21.4343 38.3349 25.0735 38.3349 29.5576Z" stroke="#828282" stroke-width="5" stroke-linecap="round" stroke-linejoin="round"/>
<path d="M84.5561 56.6861C80.182 52.8797 76.3756 48.2988 71.3591 45.2757C66.3338 42.2526 60.9344 44.1184 57.4493 48.6288C54.0829 52.9897 51.9795 58.8555 46.897 61.6058C40.6351 64.9985 36.9563 59.5288 31.733 57.3374C25.9024 54.8951 21.4755 59.2868 18.0696 63.5068C14.6592 67.7312 11.2049 71.9117 7.7373 76.0921" stroke="#828282" stroke-width="5" stroke-linecap="round" stroke-linejoin="round"/>
</svg>
