<svg width="40" height="40" viewBox="0 0 40 40" fill="none" xmlns="http://www.w3.org/2000/svg">
<rect width="40" height="40" rx="10" fill="#2BC155"/>
<path d="M19.5484 13.0026C16.0271 13.0026 13.1869 15.8232 13.1869 19.32C13.1869 22.8168 16.0271 25.6374 19.5484 25.6374C23.0697 25.6374 25.91 22.8168 25.91 19.32C25.91 15.8232 23.0697 13.0026 19.5484 13.0026ZM19.5484 23.4271C17.2729 23.4271 15.4126 21.5852 15.4126 19.32C15.4126 17.0548 17.2674 15.2129 19.5484 15.2129C21.8295 15.2129 23.6843 17.0548 23.6843 19.32C23.6843 21.5852 21.824 23.4271 19.5484 23.4271ZM27.6541 12.7442C27.6541 13.5634 26.9897 14.2177 26.1702 14.2177C25.3453 14.2177 24.6864 13.5579 24.6864 12.7442C24.6864 11.9305 25.3508 11.2707 26.1702 11.2707C26.9897 11.2707 27.6541 11.9305 27.6541 12.7442ZM31.8674 14.2397C31.7733 12.2659 31.3193 10.5174 29.8632 9.07693C28.4126 7.63641 26.6519 7.18556 24.6643 7.0866C22.6157 6.97113 16.4756 6.97113 14.4271 7.0866C12.445 7.18006 10.6843 7.63091 9.22818 9.07143C7.77205 10.5119 7.32358 12.2604 7.22392 14.2342C7.10765 16.2685 7.10765 22.366 7.22392 24.4003C7.31804 26.3741 7.77205 28.1226 9.22818 29.5631C10.6843 31.0036 12.4394 31.4544 14.4271 31.5534C16.4756 31.6689 22.6157 31.6689 24.6643 31.5534C26.6519 31.4599 28.4126 31.0091 29.8632 29.5631C31.3138 28.1226 31.7678 26.3741 31.8674 24.4003C31.9837 22.366 31.9837 16.274 31.8674 14.2397ZM29.2209 26.5831C28.7891 27.6607 27.953 28.4909 26.8623 28.9253C25.229 29.5686 21.3534 29.4201 19.5484 29.4201C17.7435 29.4201 13.8623 29.5631 12.2346 28.9253C11.1494 28.4964 10.3134 27.6662 9.87596 26.5831C9.22818 24.9611 9.37767 21.1124 9.37767 19.32C9.37767 17.5276 9.23371 13.6734 9.87596 12.0569C10.3078 10.9793 11.1438 10.1491 12.2346 9.71472C13.8679 9.07143 17.7435 9.21988 19.5484 9.21988C21.3534 9.21988 25.2346 9.07693 26.8623 9.71472C27.9475 10.1436 28.7835 10.9738 29.2209 12.0569C29.8687 13.6789 29.7192 17.5276 29.7192 19.32C29.7192 21.1124 29.8687 24.9666 29.2209 26.5831Z" fill="white"/>
</svg>
