<svg width="53" height="53" viewBox="0 0 53 53" fill="none" xmlns="http://www.w3.org/2000/svg">
<ellipse cx="23.9796" cy="28.5295" rx="23.9796" ry="24.4706" fill="#F8F8F8"/>
<ellipse cx="23.9796" cy="28.4706" rx="23.9796" ry="24.4706" fill="#F8F8F8"/>
<path fill-rule="evenodd" clip-rule="evenodd" d="M17.3484 30.6938V30.494C17.3771 29.9029 17.5628 29.3302 17.8862 28.8349C18.4245 28.24 18.793 27.5109 18.953 26.7242C18.953 26.1161 18.953 25.4994 19.0051 24.8914C19.274 21.9641 22.1103 19.9402 24.9119 19.9402H24.9813C27.783 19.9402 30.6193 21.9641 30.8969 24.8914C30.9489 25.4994 30.8969 26.1161 30.9402 26.7242C31.1024 27.5127 31.4706 28.244 32.0071 28.8436C32.3329 29.3345 32.5189 29.9051 32.5449 30.494V30.6851C32.5642 31.4792 32.2962 32.2536 31.7903 32.8653C31.1217 33.5807 30.2144 34.0257 29.2402 34.1162C26.3834 34.4289 23.5012 34.4289 20.6444 34.1162C19.6713 34.0218 18.7653 33.5774 18.0943 32.8653C17.5962 32.2531 17.3318 31.4834 17.3484 30.6938Z" stroke="#2BC155" stroke-width="2" stroke-linecap="round" stroke-linejoin="round"/>
<path d="M22.7617 37.1389C23.2081 37.7106 23.8636 38.0806 24.5831 38.1671C25.3026 38.2535 26.0269 38.0491 26.5955 37.5993C26.7704 37.4662 26.9278 37.3116 27.0639 37.1389" stroke="#2BC155" stroke-width="2" stroke-linecap="round" stroke-linejoin="round"/>
<ellipse cx="41.9772" cy="11.0642" rx="8.02217" ry="8.06423" fill="#2BC155" stroke="white" stroke-width="5"/>
</svg>
