<svg width="18" height="22" viewBox="0 0 18 22" fill="none" xmlns="http://www.w3.org/2000/svg">
<path fill-rule="evenodd" clip-rule="evenodd" d="M1.34839 12.6938V12.494C1.37712 11.9029 1.56275 11.3302 1.88617 10.8349C2.4245 10.24 2.79301 9.51087 2.95305 8.72416C2.95305 8.11612 2.95305 7.49939 3.00509 6.89135C3.27398 3.96408 6.11031 1.94019 8.91194 1.94019H8.98134C11.783 1.94019 14.6193 3.96408 14.8969 6.89135C14.9489 7.49939 14.8969 8.11612 14.9402 8.72416C15.1024 9.5127 15.4706 10.244 16.0071 10.8436C16.3329 11.3345 16.5189 11.9051 16.5449 12.494V12.6851C16.5642 13.4792 16.2962 14.2536 15.7903 14.8653C15.1217 15.5807 14.2144 16.0257 13.2402 16.1162C10.3834 16.4289 7.50117 16.4289 4.64444 16.1162C3.67132 16.0218 2.76534 15.5774 2.09434 14.8653C1.59619 14.2531 1.33178 13.4834 1.34839 12.6938Z" stroke="#2BC155" stroke-width="2" stroke-linecap="round" stroke-linejoin="round"/>
<path d="M6.76172 19.1389C7.20808 19.7106 7.86355 20.0806 8.58308 20.1671C9.30261 20.2535 10.0269 20.0491 10.5955 19.5993C10.7704 19.4662 10.9278 19.3116 11.0639 19.1389" stroke="#2BC155" stroke-width="2" stroke-linecap="round" stroke-linejoin="round"/>
</svg>
