<svg width="25" height="24" viewBox="0 0 25 24" fill="none" xmlns="http://www.w3.org/2000/svg">
<path d="M10.0617 19.3113C12.2963 19.3114 14.4669 18.5956 16.2298 17.2772L22.8806 23.6629C23.3774 24.1236 24.1691 24.1104 24.6489 23.6334C25.117 23.1681 25.117 22.4303 24.6489 21.965L17.9981 15.5793C21.4053 11.3681 20.6119 5.3023 16.2259 2.03089C11.8399 -1.24052 5.52239 -0.478718 2.11519 3.73247C-1.29201 7.94365 -0.49859 14.0095 3.8874 17.2809C5.65315 18.5979 7.82573 19.3124 10.0617 19.3113ZM4.71787 4.52615C7.66923 1.69235 12.4543 1.6923 15.4058 4.52604C18.3572 7.35978 18.3572 11.9542 15.4059 14.788C12.4545 17.6218 7.66939 17.6218 4.71797 14.7881C4.71792 14.788 4.71792 14.788 4.71787 14.788C1.7665 11.9749 1.74911 7.39723 4.67897 4.56349C4.69192 4.55101 4.70487 4.53858 4.71787 4.52615Z" fill="#2BC155"/>
</svg>
