<svg width="53" height="53" viewBox="0 0 53 53" fill="none" xmlns="http://www.w3.org/2000/svg">
<ellipse cx="24.4373" cy="28.3788" rx="24.2537" ry="24.6212" fill="#F8F8F8"/>
<path fill-rule="evenodd" clip-rule="evenodd" d="M31.7315 24.8896L31.1896 23.935C30.7311 23.1272 29.7151 22.8486 28.9183 23.3121V23.3121C28.539 23.5389 28.0864 23.6032 27.6604 23.4909C27.2343 23.3786 26.8697 23.0989 26.6471 22.7134C26.5038 22.4684 26.4268 22.1893 26.4239 21.9044V21.9044C26.4368 21.4476 26.2671 21.005 25.9533 20.6773C25.6395 20.3496 25.2085 20.1649 24.7583 20.165H23.6665C23.2255 20.165 22.8027 20.3434 22.4916 20.6608C22.1805 20.9781 22.0068 21.4082 22.0089 21.8559V21.8559C21.9959 22.7802 21.254 23.5225 20.3433 23.5224C20.0627 23.5195 19.7878 23.4413 19.5464 23.2959V23.2959C18.7496 22.8324 17.7336 23.1111 17.2752 23.9188L16.6934 24.8896C16.2355 25.6964 16.5063 26.7271 17.2991 27.1953V27.1953C17.8144 27.4973 18.1319 28.0555 18.1319 28.6596C18.1319 29.2637 17.8144 29.8219 17.2991 30.1239V30.1239C16.5073 30.5889 16.2362 31.6172 16.6934 32.4215V32.4215L17.2433 33.3842C17.4581 33.7777 17.8185 34.068 18.2448 34.191C18.671 34.314 19.128 34.2594 19.5145 34.0395V34.0395C19.8945 33.8144 20.3474 33.7527 20.7724 33.8682C21.1974 33.9836 21.5593 34.2666 21.7778 34.6543C21.9211 34.8993 21.998 35.1784 22.001 35.4633V35.4633C22.001 36.3971 22.7467 37.1541 23.6665 37.1541H24.7583C25.6751 37.1542 26.4195 36.4021 26.4239 35.4714V35.4714C26.4218 35.0223 26.5966 34.591 26.9094 34.2734C27.2222 33.9559 27.6471 33.7784 28.0895 33.7806C28.3695 33.7882 28.6433 33.866 28.8864 34.0071V34.0071C29.6811 34.472 30.6965 34.1971 31.1577 33.3923V33.3923L31.7315 32.4215C31.9536 32.0345 32.0145 31.5736 31.9009 31.1408C31.7872 30.708 31.5082 30.3391 31.1258 30.1158V30.1158C30.7434 29.8925 30.4644 29.5236 30.3508 29.0908C30.2371 28.658 30.298 28.1971 30.5201 27.8101C30.6646 27.5542 30.8736 27.3419 31.1258 27.1953V27.1953C31.9139 26.7274 32.184 25.7027 31.7315 24.8977V24.8977V24.8896Z" stroke="#FD6162" stroke-width="2" stroke-linecap="round" stroke-linejoin="round"/>
<ellipse cx="24.217" cy="28.6595" rx="2.29516" ry="2.32993" stroke="#FD6162" stroke-width="2" stroke-linecap="round" stroke-linejoin="round"/>
<ellipse cx="41.9746" cy="11.3333" rx="8.20895" ry="8.33333" fill="#FD6162" stroke="white" stroke-width="5"/>
</svg>
