<svg width="24" height="26" viewBox="0 0 24 26" fill="none" xmlns="http://www.w3.org/2000/svg">
<path fill-rule="evenodd" clip-rule="evenodd" d="M22.2744 7.89466L21.5482 6.63456C20.9339 5.56832 19.5725 5.20049 18.5048 5.81228V5.81228C17.9965 6.11168 17.3901 6.19663 16.8191 6.04838C16.2482 5.90014 15.7597 5.53088 15.4613 5.02205C15.2693 4.69862 15.1662 4.33024 15.1623 3.95416V3.95416C15.1796 3.35121 14.9521 2.76692 14.5317 2.3344C14.1112 1.90187 13.5336 1.65795 12.9304 1.6582H11.4674C10.8764 1.6582 10.3098 1.89368 9.89296 2.31255C9.47609 2.73142 9.24333 3.29914 9.24617 3.89009V3.89009C9.22866 5.11019 8.23452 6.09006 7.01429 6.08993C6.63821 6.08603 6.26983 5.98288 5.9464 5.79093V5.79093C4.8787 5.17913 3.51726 5.54696 2.90292 6.6132L2.12336 7.89466C1.50977 8.95957 1.87259 10.3202 2.93496 10.9381V10.9381C3.62551 11.3368 4.05091 12.0736 4.05091 12.871C4.05091 13.6684 3.62551 14.4052 2.93496 14.8039V14.8039C1.87394 15.4177 1.51072 16.775 2.12336 17.8367V17.8367L2.86021 19.1075C3.14805 19.6269 3.631 20.0101 4.20218 20.1725C4.77337 20.3348 5.38571 20.2628 5.90368 19.9725V19.9725C6.41289 19.6753 7.01968 19.5939 7.58919 19.7463C8.1587 19.8987 8.64373 20.2723 8.93648 20.7841C9.12844 21.1075 9.23159 21.4759 9.23549 21.8519V21.8519C9.23549 23.0846 10.2347 24.0838 11.4674 24.0838H12.9304C14.1589 24.0838 15.1564 23.0911 15.1623 21.8626V21.8626C15.1594 21.2698 15.3936 20.7005 15.8128 20.2813C16.232 19.8621 16.8013 19.6279 17.3942 19.6307C17.7693 19.6408 18.1362 19.7435 18.462 19.9298V19.9298C19.5269 20.5433 20.8875 20.1805 21.5055 19.1182V19.1182L22.2744 17.8367C22.572 17.3259 22.6537 16.7175 22.5014 16.1462C22.349 15.575 21.9753 15.088 21.4628 14.7932V14.7932C20.9503 14.4984 20.5766 14.0115 20.4242 13.4402C20.2719 12.869 20.3536 12.2606 20.6512 11.7497C20.8447 11.4118 21.1249 11.1317 21.4628 10.9381V10.9381C22.5188 10.3205 22.8808 8.96786 22.2744 7.90534V7.90534V7.89466Z" stroke="#FD6162" stroke-width="2" stroke-linecap="round" stroke-linejoin="round"/>
<ellipse cx="12.2042" cy="12.8704" rx="3.07551" ry="3.07551" stroke="#FD6162" stroke-width="2" stroke-linecap="round" stroke-linejoin="round"/>
</svg>
