<svg width="40" height="40" viewBox="0 0 40 40" fill="none" xmlns="http://www.w3.org/2000/svg">
<rect width="40" height="40" rx="10" fill="#2BC155"/>
<path d="M23.3961 18.58L23.4161 18.331C23.4716 17.5569 23.4993 16.7811 23.4991 16.005C23.4991 15.135 23.2051 14.519 22.5851 13.942C21.9251 13.328 21.1261 13 19.9951 13C18.8581 13 18.0371 13.335 17.4851 13.888C16.7891 14.583 16.5271 15.106 16.5271 15.988C16.5271 16.509 16.5881 17.982 16.6231 18.606C16.6515 19.1161 16.4837 19.6177 16.1541 20.008C16.2091 20.106 16.2591 20.212 16.3071 20.325C16.6071 21.096 16.5051 21.868 16.1551 22.596C15.7631 23.414 15.4241 23.989 14.7451 24.75C14.5435 24.9764 14.3291 25.191 14.1031 25.393C14.2725 25.5557 14.412 25.7469 14.5151 25.958C15.0443 25.911 15.5775 25.9359 16.1001 26.032C16.9101 26.178 17.4241 26.466 18.2941 27.093L18.3101 27.104L18.5231 27.256C19.1421 27.696 19.4001 27.802 19.9961 27.802C20.6051 27.802 20.9061 27.681 21.5191 27.25L21.7261 27.104C22.6021 26.472 23.1331 26.176 23.9571 26.028C24.472 25.9424 24.9953 25.9175 25.5161 25.954C25.6204 25.7418 25.7616 25.5498 25.9331 25.387C25.7172 25.1924 25.5116 24.9868 25.3171 24.771C24.7353 24.1228 24.2481 23.3956 23.8701 22.611C23.5071 21.862 23.4001 21.071 23.7331 20.29C23.7731 20.192 23.8181 20.1 23.8651 20.014C23.5273 19.6153 23.3589 19.1002 23.3961 18.579V18.58ZM13.0811 18.478C13.5001 18.478 13.6811 18.783 14.3001 18.783C14.4571 18.783 14.5601 18.748 14.6261 18.717C14.6171 18.561 14.5271 16.731 14.5271 15.988C14.5271 14.3 15.2471 13.298 16.0701 12.474C16.8931 11.65 18.1751 11 19.9961 11C21.8161 11 23.0621 11.653 23.9481 12.478C24.8341 13.303 25.4991 14.408 25.4991 16.006C25.4991 17.561 25.4001 18.6 25.3911 18.722C25.4773 18.7663 25.5731 18.7886 25.6701 18.787C26.3001 18.787 26.3001 18.477 27.0001 18.477C27.6851 18.477 27.9831 19.047 27.9831 19.3C27.9831 19.921 27.1501 20.267 26.6531 20.426C26.2841 20.543 25.7221 20.717 25.5781 21.061C25.5041 21.235 25.5351 21.461 25.6701 21.739C25.6731 21.747 26.9301 24.622 29.6001 25.065C29.8351 25.1 29.9911 25.306 29.9911 25.548C29.9911 25.88 29.6211 26.165 29.2651 26.33C28.8221 26.53 28.1741 26.7 27.3131 26.835C27.2701 26.913 27.1791 27.32 27.0781 27.722C26.9431 28.264 26.2771 28.088 26.0871 28.048C25.4962 27.9236 24.8877 27.9074 24.2911 28C23.8091 28.087 23.3781 28.378 22.8961 28.726C22.1831 29.23 21.4311 29.802 19.9961 29.802C18.5601 29.802 17.8521 29.23 17.1391 28.726C16.6571 28.378 16.2341 28.089 15.7431 28C14.8451 27.837 14.1731 28.036 13.9481 28.057C13.7221 28.077 13.1061 28.301 12.9521 27.73C12.9071 27.564 12.7611 26.922 12.7171 26.835C11.8611 26.7 11.2091 26.522 10.7651 26.322C10.4001 26.157 10.0391 25.879 10.0391 25.543C10.0391 25.308 10.1971 25.103 10.4301 25.061C13.0741 24.578 14.1961 22.056 14.3521 21.731C14.4841 21.455 14.5131 21.231 14.4431 21.052C14.3001 20.709 13.7391 20.539 13.3701 20.417C13.2651 20.383 12.0341 20.044 12.0341 19.3C12.0341 19.06 12.2391 18.727 12.6161 18.57C12.7645 18.5123 12.9219 18.4812 13.0811 18.478Z" fill="white"/>
</svg>
