<svg width="40" height="40" viewBox="0 0 40 40" fill="none" xmlns="http://www.w3.org/2000/svg">
<rect width="40" height="40" rx="10" fill="#FD6162"/>
<path d="M31.1612 19.8157C31.1612 19.7604 31.1613 19.6974 31.1587 19.6245C31.1562 19.4206 31.1512 19.1916 31.1461 18.9474C31.126 18.2452 31.0908 17.5455 31.0354 16.8861C30.9599 15.9775 30.8492 15.22 30.6982 14.6512C30.5388 14.0576 30.2264 13.5162 29.7923 13.0812C29.3581 12.6461 28.8174 12.3326 28.2241 12.1721C27.5118 11.9808 26.1175 11.8625 24.1544 11.7895C23.2206 11.7543 22.2214 11.7316 21.2222 11.7191C20.8724 11.714 20.5477 11.7115 20.2558 11.709H19.5158C19.2239 11.7115 18.8992 11.714 18.5494 11.7191C17.5502 11.7316 16.551 11.7543 15.6172 11.7895C13.6541 11.865 12.2573 11.9833 11.5475 12.1721C10.954 12.3323 10.4131 12.6456 9.97887 13.0807C9.54465 13.5158 9.23241 14.0574 9.07345 14.6512C8.91992 15.22 8.8117 15.9775 8.73619 16.8861C8.68082 17.5455 8.64559 18.2452 8.62545 18.9474C8.6179 19.1916 8.61539 19.4206 8.61287 19.6245C8.61287 19.6974 8.61035 19.7604 8.61035 19.8157V19.9567C8.61035 20.012 8.61035 20.075 8.61287 20.148C8.61539 20.3518 8.62042 20.5809 8.62545 20.825C8.64559 21.5272 8.68082 22.2269 8.73619 22.8863C8.8117 23.7949 8.92244 24.5524 9.07345 25.1212C9.39561 26.3268 10.3419 27.2782 11.5475 27.6003C12.2573 27.7916 13.6541 27.9099 15.6172 27.9829C16.551 28.0181 17.5502 28.0408 18.5494 28.0534C18.8992 28.0584 19.2239 28.0609 19.5158 28.0634H20.2558C20.5477 28.0609 20.8724 28.0584 21.2222 28.0534C22.2214 28.0408 23.2206 28.0181 24.1544 27.9829C26.1175 27.9074 27.5143 27.7891 28.2241 27.6003C29.4297 27.2782 30.376 26.3293 30.6982 25.1212C30.8517 24.5524 30.9599 23.7949 31.0354 22.8863C31.0908 22.2269 31.126 21.5272 31.1461 20.825C31.1537 20.5809 31.1562 20.3518 31.1587 20.148C31.1587 20.075 31.1612 20.012 31.1612 19.9567V19.8157ZM29.3491 19.9466C29.3491 19.9995 29.3491 20.0573 29.3466 20.1253C29.3441 20.3216 29.3391 20.5381 29.334 20.7721C29.3164 21.4416 29.2812 22.1111 29.2283 22.7327C29.1604 23.5432 29.0647 24.2076 28.9464 24.6531C28.7904 25.2345 28.3323 25.6951 27.7534 25.8486C27.2249 25.9895 25.8935 26.1028 24.0839 26.1708C23.1678 26.206 22.1812 26.2286 21.1971 26.2412C20.8523 26.2463 20.5326 26.2488 20.2457 26.2488H19.5259L18.5745 26.2412C17.5904 26.2286 16.6064 26.206 15.6877 26.1708C13.8781 26.1003 12.5442 25.9895 12.0182 25.8486C11.4393 25.6926 10.9812 25.2345 10.8252 24.6531C10.7069 24.2076 10.6112 23.5432 10.5433 22.7327C10.4904 22.1111 10.4577 21.4416 10.4376 20.7721C10.43 20.5381 10.4275 20.3191 10.425 20.1253C10.425 20.0573 10.4225 19.9969 10.4225 19.9466V19.8258C10.4225 19.7729 10.4225 19.7151 10.425 19.6471C10.4275 19.4508 10.4325 19.2343 10.4376 19.0003C10.4552 18.3308 10.4904 17.6613 10.5433 17.0397C10.6112 16.2292 10.7069 15.5648 10.8252 15.1193C10.9812 14.5379 11.4393 14.0773 12.0182 13.9238C12.5467 13.7829 13.8781 13.6696 15.6877 13.6016C16.6038 13.5664 17.5904 13.5438 18.5745 13.5312C18.9193 13.5261 19.239 13.5236 19.5259 13.5236H20.2457L21.1971 13.5312C22.1812 13.5438 23.1652 13.5664 24.0839 13.6016C25.8935 13.6721 27.2274 13.7829 27.7534 13.9238C28.3323 14.0798 28.7904 14.5379 28.9464 15.1193C29.0647 15.5648 29.1604 16.2292 29.2283 17.0397C29.2812 17.6613 29.3139 18.3308 29.334 19.0003C29.3416 19.2343 29.3441 19.4533 29.3466 19.6471C29.3466 19.7151 29.3491 19.7755 29.3491 19.8258V19.9466ZM17.6458 23.2588L23.4849 19.861L17.6458 16.5136V23.2588Z" fill="white"/>
</svg>
